<?xml version="1.0" ?><!DOCTYPE svg  PUBLIC '-//W3C//DTD SVG 1.1//EN'  'http://www.w3.org/Graphics/SVG/1.1/DTD/svg11.dtd'><svg enable-background="new 0 0 489.597 524.424" height="524.424" id="レイヤー_1" overflow="visible" version="1.1" viewBox="0 0 489.597 524.424" width="489.597" xml:space="preserve" xmlns="http://www.w3.org/2000/svg" xmlns:xlink="http://www.w3.org/1999/xlink"><g id="地図_xFF12_"><g opacity="0.39"><polygon points="27.19,405.536 108.734,281.365 347.873,281.365 425.644,403.683   "/><path d="M228.48,179.662c17.848,0,32.314,14.196,32.314,31.709c0,10.301-5.006,19.455-12.762,25.247l-20.63,78.334l-20.035-79.575    c-6.86-5.815-11.202-14.413-11.202-24.006C196.166,193.859,210.634,179.662,228.48,179.662z"/></g><g><g><polygon fill="#FFFFFF" id="XMLID_682_" points="47.576,375.533 129.12,251.364 368.257,251.364 446.031,373.68    "/></g><g><defs><polygon id="XMLID_594_" points="47.576,375.533 129.12,251.364 368.257,251.364 446.031,373.68     "/></defs><clipPath id="XMLID_620_"><use xlink:href="#XMLID_594_"/></clipPath><path clip-path="url(#XMLID_620_)" d="M179.159,290.281     c22.9-5.724,52.503-7.947,70.424,7.414c10.949,9.386,16.148,26.442,29.652,31.506c18.654,6.995,39.979,2.582,59.305,7.414" fill="none" stroke="#A8A8A8" stroke-linejoin="round" stroke-width="3"/></g><g><defs><polygon id="XMLID_596_" points="47.576,375.533 129.12,251.364 368.257,251.364 446.031,373.68     "/></defs><clipPath id="XMLID_621_"><use xlink:href="#XMLID_596_"/></clipPath><path clip-path="url(#XMLID_621_)" d="M314.449,275.456     c-7.291-1.823-14.725,3.707-22.24,3.707c-7.813,0-14.658-5.519-22.238-7.413c-11.987-2.997-24.806,1.531-37.066,0     c-13.458-1.684-23.082-14.321-35.212-20.387" fill="none" stroke="#A8A8A8" stroke-linejoin="round" stroke-width="3"/></g><g><defs><polygon id="XMLID_598_" points="47.576,375.533 129.12,251.364 368.257,251.364 446.031,373.68     "/></defs><clipPath id="XMLID_622_"><use xlink:href="#XMLID_598_"/></clipPath><path clip-path="url(#XMLID_622_)" d="M290.356,377.387     c0-7.642,0.658-17.798-5.56-22.24c-2.073-1.479-4.942-1.234-7.414-1.853c-2.471-0.618-5.457-0.224-7.412-1.854     c-8.752-7.293-11.189-23.183-22.24-25.945c-9.884-2.472-20.54,11.969-29.652,7.413c-2.763-1.382-5.881-2.879-7.413-5.561     c-1.226-2.145-0.6-5.016,0-7.413c0.67-2.68,3.363-4.672,3.706-7.413c0.316-2.527,0.331-6.103-1.853-7.413     s-4.886,1.537-7.413,1.854c-2.452,0.306-5.1,0.868-7.413,0c-2.893-1.085-5.618-3.046-7.414-5.561     c-1.48-2.072-0.222-5.456-1.853-7.413c-1.768-2.121-4.733-3.036-7.413-3.707c-2.397-0.599-5.099,0.868-7.413,0     c-2.892-1.084-5.403-3.214-7.413-5.559c-1.798-2.098-1.584-5.645-3.707-7.414c-14.519-12.099-38.694,2.668-54.672,8.34     c-24.907,10.138-46.608,31.565-63.938,54.672L27.19,369.974c2.262,18.102,30.237,22.682,48.185,25.946     c29.401,5.345,59.257,7.818,88.958,11.119c44.432,4.937,131.583,18.76,131.583-25.946" stroke="#A8A8A8" stroke-linejoin="round" stroke-width="13"/></g><g><defs><polygon id="XMLID_600_" points="47.576,375.533 129.12,251.364 368.257,251.364 446.031,373.68     "/></defs><clipPath id="XMLID_623_"><use xlink:href="#XMLID_600_"/></clipPath><path clip-path="url(#XMLID_623_)" d="M416.378,386.653     c-4.455-8.908-17.037-10.37-25.945-14.825c-8.215-4.107-11.061-15.049-18.533-20.387c-8.678-6.198-23.965,1.981-31.506-5.56     c-5.695-5.696,3.303-17.905-1.854-24.093c-5.201-6.242-17.48,1.016-24.092-3.706c-2.248-1.606-3.707-4.651-3.707-7.413     c0-2.763,2.471-4.943,3.707-7.414c1.234-2.471,2.736-4.826,3.707-7.413c3.477-9.273-7.348-21.412-1.854-29.652     c1.531-2.299,4.998-2.364,7.412-3.707c3.15-1.749,6.178-3.706,14.826-8.34c41.115-9.89,87.412-11.739,113.051,13.9     c19.389,19.388,31.506,48.565,31.506,75.984l-1.854,24.093c-5.902,9.443-20.369,11.12-31.506,11.12     c-19.777,0-39.527-1.854-59.305-1.854" stroke="#A8A8A8" stroke-linejoin="round" stroke-width="13"/></g><g><polygon fill="none" id="XMLID_255_" points="47.576,375.533      129.12,251.364 368.257,251.364 446.031,373.68    " stroke="#000000" stroke-linejoin="round" stroke-width="18"/></g></g><g><path d="M248.867,149.66    c17.846,0,32.314,14.195,32.314,31.708c0,10.301-5.006,19.454-12.762,25.246l-20.631,78.336l-20.035-79.576    c-6.86-5.814-11.202-14.412-11.202-24.006C216.552,163.856,231.02,149.66,248.867,149.66z" fill="#FFFFFF" stroke="#000000" stroke-linejoin="round" stroke-width="13"/><circle cx="247.73" cy="179.085" fill="#A8A8A8" r="7.414"/></g></g></svg>